Coordinates
version=1
nRows=4
nColumns=63
inDegrees=yes

Units are S.I. units (second, meters, Newtons, ...)
If the header above contains a line with 'inDegrees', this indicates whether rotational values are in degrees (yes) or radians (no).

endheader
time	pelvis_tilt	pelvis_list	pelvis_rotation	pelvis_tx	pelvis_ty	pelvis_tz	hip_flexion_r	hip_adduction_r	hip_rotation_r	knee_angle_r	knee_angle_r_beta	ankle_angle_r	subtalar_angle_r	mtp_angle_r	hip_flexion_l	hip_adduction_l	hip_rotation_l	knee_angle_l	knee_angle_l_beta	ankle_angle_l	subtalar_angle_l	mtp_angle_l	L5_S1_Flex_Ext	L5_S1_Lat_Bending	L5_S1_axial_rotation	L4_L5_Flex_Ext	L4_L5_Lat_Bending	L4_L5_axial_rotation	L3_L4_Flex_Ext	L3_L4_Lat_Bending	L3_L4_axial_rotation	L2_L3_Flex_Ext	L2_L3_Lat_Bending	L2_L3_axial_rotation	L1_L2_Flex_Ext	L1_L2_Lat_Bending	L1_L2_axial_rotation	L1_T12_Flex_Ext	L1_T12_Lat_Bending	L1_T12_axial_rotation	Abs_r3	Abs_r2	Abs_r1	Abs_t1	Abs_t2	neck_flexion	neck_bending	neck_rotation	arm_flex_r	arm_add_r	arm_rot_r	elbow_flex_r	pro_sup_r	wrist_flex_r	wrist_dev_r	arm_flex_l	arm_add_l	arm_rot_l	elbow_flex_l	pro_sup_l	wrist_flex_l	wrist_dev_l
      0.00000000	    -59.57112906	     66.80642989	    146.73816870	      0.18233612	      1.01127693	      0.21871041	    -49.79621420	     -7.74122121	     -2.97866027	     62.52278094	      1.09122838	     50.79177702	    -18.65637933	      0.00000000	    -49.80598071	      4.44464013	      0.55689387	     55.26035062	      0.96447506	     52.00012323	     16.69354233	      0.00000000	     -0.25748194	     -8.76658247	    -14.01680356	     -0.47816970	    -11.65955469	    -14.89285379	     -0.42301707	    -21.31506863	    -14.89285379	     -0.29427610	    -21.31506863	    -12.26470312	     -0.23909773	    -17.87681498	    -11.38865290	     -0.14712518	    -13.57943625	    -10.51260267	     -1.83916772	    -99.16933426	    -77.95725638	      0.00000000	      0.00000000	     28.15058039	    -32.68377724	     44.97496320	    -28.13904845	    -69.61511452	     12.52605235	      5.36929988	      1.83651036	    -11.77961023	     -0.09903929	    -91.25449860	    -22.46559135	     20.68039074	    103.80858330	      1.15772184	    -20.59652751	     19.50172183
      0.01851852	    -54.72409646	     63.58140901	    144.11404300	      0.18911819	      1.02469634	      0.19016892	    -49.80487257	     -5.27469014	     -4.40582792	     59.22681686	      1.03370296	     50.96186442	    -19.31961186	      0.00000000	    -49.79609028	      2.02080461	      1.12251258	     51.32888887	      0.89585811	     52.85047465	     18.95005992	      0.00000000	      0.03994865	     -8.77094729	    -14.65414345	      0.07418864	    -11.66535989	    -15.57002742	      0.06563164	    -21.32568124	    -15.57002742	      0.04565731	    -21.32568124	    -12.82237552	      0.03709632	    -17.88571571	    -11.90649156	      0.02282666	    -13.58619735	    -10.99060759	      0.28534922	    -99.21870991	    -81.50194965	      0.00000000	      0.00000000	     28.12164619	    -32.24439896	     44.97330847	    -27.24964868	    -68.81938683	     13.36382409	      5.18976077	      1.91126653	    -11.80047954	     -0.17486889	    -92.69739180	    -10.62220637	     17.61675857	    101.14000825	      1.32030815	    -29.65967924	     17.37476668
      0.03703704	    -50.96114677	     60.05749823	    142.37785883	      0.19349021	      1.03706547	      0.16011190	    -49.80953904	     -3.31488418	     -5.89216317	     55.68381383	      0.97186589	     51.40575599	    -19.52686081	      0.00000000	    -49.78318644	      0.55431623	      2.69219877	     47.10830622	      0.82219505	     53.36544083	     19.39304498	      0.00000000	      0.33403973	     -8.76001256	    -15.28351349	      0.62034518	    -11.65081670	    -16.23873308	      0.54879387	    -21.29909453	    -16.23873308	      0.38177401	    -21.29909453	    -13.37307430	      0.31018929	    -17.86341761	    -12.41785471	      0.19087030	    -13.56925945	    -11.46263511	      2.38601240	    -99.09501406	    -85.00231696	      0.00000000	      0.00000000	     27.97997576	    -31.85788588	     44.97133702	    -26.74609551	    -67.79055313	     13.87241850	      4.98139755	      2.03402076	    -11.87485311	     -0.31468103	    -93.21329742	      0.48784852	     14.69483202	     96.88803206	      1.65441713	    -35.44572969	     14.54365390
      0.05555556	    -47.91663875	     56.27223082	    141.32276597	      0.19564210	      1.04837531	      0.12890029	    -49.81213126	     -1.62290109	     -7.45457281	     51.82863632	      0.90458035	     51.86863971	    -19.62148240	      0.00000000	    -49.76621586	     -0.54064773	      4.75747733	     42.58087086	      0.74317639	     53.67192493	     19.53622323	      0.00000000	      0.61754213	     -8.72412192	    -15.92139561	      1.14683749	    -11.60308215	    -16.91648283	      1.01455996	    -21.21183002	    -16.91648283	      0.70578890	    -21.21183002	    -13.93122116	      0.57344962	    -17.79022941	    -12.93613393	      0.35286357	    -13.51366485	    -11.94104671	      4.41104167	    -98.68901193	    -88.55002595	      0.00000000	      0.00000000	     27.59382826	    -31.43242479	     44.96896804	    -26.69931207	    -66.57150311	     13.90255515	      4.73435255	      2.28708985	    -11.98333263	     -0.49461326	    -92.73113415	     10.35432894	     11.89177943	     91.20717208	      2.18875040	    -38.23496312	     11.55836564
